<?xml version="1.0" standalone="no"?><!DOCTYPE svg PUBLIC "-//W3C//DTD SVG 1.1//EN" "http://www.w3.org/Graphics/SVG/1.1/DTD/svg11.dtd"><svg height="1024" node-id="1" sillyvg="true" template-height="1024" template-width="1024" version="1.1" viewBox="0 0 1024 1024" width="1024" xmlns="http://www.w3.org/2000/svg" xmlns:xlink="http://www.w3.org/1999/xlink"><defs node-id="65"></defs><path d="M 591.30 215.60 C 591.30 213.50 591.30 211.40 590.70 209.60 C 590.10 207.80 589.80 207.80 589.50 209.60 C 588.90 215.30 588.30 221.20 587.70 226.90 C 587.10 231.10 585.60 235.20 585.00 239.40 C 584.40 242.70 583.50 245.60 582.60 248.90 C 578.40 259.30 573.70 269.10 568.30 279.00 C 565.90 283.80 566.50 284.10 570.40 280.80 C 572.80 278.10 575.80 275.70 579.00 274.30 C 583.50 272.50 587.00 269.50 591.20 268.10 C 598.60 265.70 606.70 264.20 614.40 264.20 C 615.60 263.90 617.10 265.10 617.10 266.30 L 617.10 266.60 C 617.40 268.70 616.80 270.80 615.60 272.30 C 614.10 273.80 612.30 274.70 610.20 275.30 C 605.40 277.10 600.70 278.60 595.90 280.40 C 594.10 281.00 592.60 281.90 591.10 282.80 C 589.60 284.00 588.10 284.90 586.60 286.10 C 584.50 287.60 582.10 288.50 579.50 289.10 C 575.60 290.00 572.10 292.10 569.40 295.10 C 568.80 295.70 567.90 296.30 567.00 296.30 L 560.50 296.60 C 559.60 296.60 558.70 297.20 558.10 297.80 L 545.30 313.00 C 537.90 322.20 529.20 330.90 520.00 338.60 C 514.90 342.50 510.50 347.20 506.60 352.30 C 498.60 362.70 490.50 372.50 481.90 382.40 C 473.90 391.30 464.90 392.50 454.80 385.70 C 446.20 379.70 443.50 372.00 446.50 362.80 C 447.70 359.50 447.10 359.20 445.00 362.20 C 432.80 379.20 409.90 385.10 393.20 369.90 C 390.50 366.90 388.70 363.70 387.50 360.10 C 387.20 359.20 387.50 358.30 388.40 358.00 L 388.40 358.00 C 389.30 357.40 389.90 356.80 390.50 355.60 C 390.80 354.70 390.50 354.10 389.60 354.40 C 386.30 355.00 383.10 355.60 379.50 356.20 C 366.70 358.30 357.20 352.30 347.40 345.20 C 344.70 343.40 342.90 340.40 342.00 337.50 C 341.70 336.60 342.00 335.40 342.30 334.80 C 343.50 332.10 345.30 330.00 347.70 328.60 C 356.00 323.50 364.70 319.10 373.90 315.50 C 375.10 314.90 375.10 314.30 374.20 313.40 C 368.50 308.30 362.30 303.90 355.80 300.30 C 352.80 298.80 352.50 299.40 354.60 301.80 C 355.80 303.00 357.00 303.90 358.20 304.80 C 355.20 303.60 352.50 301.50 350.20 298.80 C 335.30 285.70 325.20 267.60 321.30 247.90 C 321.00 246.10 320.70 244.00 320.70 242.20 C 320.70 241.60 321.30 241.00 321.90 241.00 L 321.90 241.00 L 323.40 241.00 C 324.30 241.00 325.20 241.90 325.20 242.80 L 325.20 242.80 C 325.20 246.70 327.00 248.80 330.90 248.80 C 341.30 248.50 351.70 251.20 360.70 256.20 C 363.10 257.70 364.60 256.80 365.20 254.10 C 366.40 248.10 367.30 242.20 368.20 235.90 C 370.90 218.30 379.20 202.00 392.00 189.80 C 392.90 188.60 394.70 188.60 395.90 189.80 L 395.90 189.80 C 401.30 195.20 407.50 199.60 414.30 202.90 L 414.60 202.90 L 414.90 202.30 C 415.50 201.70 415.20 200.80 414.60 200.20 L 414.30 199.90 C 413.40 199.30 412.80 198.40 412.50 197.50 C 412.20 195.70 412.80 195.40 414.00 196.30 C 423.50 203.40 428.60 211.20 435.10 220.70 C 435.40 221.30 436.00 221.60 436.90 221.30 C 436.90 221.30 437.20 221.30 437.20 221.00 C 441.40 217.40 446.70 214.80 452.10 213.60 C 453.30 213.30 454.50 213.60 455.40 214.50 C 457.20 216.00 459.30 216.60 461.40 216.00 C 462.30 216.00 463.20 215.40 463.80 214.80 C 469.80 208.30 477.50 203.20 485.80 199.90 C 491.80 197.80 497.70 196.00 503.70 194.50 C 505.20 194.20 506.70 194.50 507.90 195.40 C 508.20 195.70 508.20 196.00 508.20 196.60 C 508.20 196.90 507.90 196.90 507.60 196.90 C 504.30 197.20 501.10 197.80 498.10 199.00 C 488.00 203.20 478.20 208.20 469.20 214.50 C 468.60 214.80 468.60 215.70 468.90 216.30 L 469.20 216.90 C 469.50 217.20 469.80 217.50 470.10 217.20 L 470.10 217.20 C 479.00 213.00 490.30 208.30 503.70 202.90 C 508.50 200.80 513.50 200.20 518.60 200.50 C 518.90 200.50 519.50 200.50 519.80 200.20 C 520.10 199.90 520.10 199.60 520.10 199.60 C 520.10 199.30 520.10 199.00 519.80 199.00 C 518.90 198.70 518.00 198.10 517.40 197.20 C 516.80 196.60 517.10 195.70 517.40 195.40 C 517.70 195.40 517.70 195.10 518.00 195.10 C 519.20 194.50 520.70 194.80 521.90 195.70 C 526.10 199.60 529.00 205.50 530.20 213.90 C 530.50 215.40 531.10 215.70 532.30 215.10 C 545.40 207.70 559.10 202.30 573.70 198.40 C 578.20 197.20 582.90 196.60 587.70 196.30 C 589.20 196.30 590.40 197.20 591.00 198.70 C 592.20 203.40 592.50 209.70 591.30 215.60 Z" fill="#c4d2ac" fill-rule="nonzero" node-id="69" stroke="none" target-height="203.9" target-width="296.7" target-x="320.7" target-y="188.6"></path><path d="M 591.30 215.60 C 590.40 233.80 584.20 250.70 577.30 267.10 C 576.10 269.80 577.00 270.40 579.70 269.20 C 591.30 263.50 604.40 260.60 617.20 260.90 C 622.30 260.90 624.60 265.10 622.60 269.80 C 621.40 272.80 619.60 276.00 617.80 278.70 C 615.70 276.00 613.90 276.60 612.10 280.20 C 611.50 281.70 610.60 283.20 609.40 284.40 C 597.20 299.30 587.70 309.40 581.10 314.50 C 575.40 319.30 568.90 323.10 562.10 326.10 C 551.40 330.00 540.70 334.10 530.30 338.60 C 529.70 338.90 528.80 338.90 528.20 338.30 C 527.90 338.00 527.90 337.70 527.90 337.40 C 527.90 336.80 528.20 335.90 528.50 335.60 C 531.20 332.90 533.90 330.20 536.80 327.90 C 537.10 327.60 537.40 327.30 537.40 326.70 C 537.70 326.40 537.70 326.10 538.00 325.50 C 538.30 324.60 538.90 323.70 539.80 323.10 C 545.20 319.20 546.90 315.70 545.20 312.70 L 558.00 297.50 C 558.60 296.90 559.50 296.30 560.40 296.30 L 566.90 296.00 C 567.80 296.00 568.70 295.40 569.30 294.80 C 572.00 291.80 575.50 289.70 579.40 288.80 C 581.80 288.20 584.20 287.30 586.50 285.80 C 588.00 284.90 589.50 283.70 591.00 282.50 C 592.50 281.30 594.00 280.70 595.80 280.10 C 600.60 278.30 605.30 276.80 610.10 275.00 C 612.20 274.40 614.00 273.50 615.50 272.00 C 617.00 270.50 617.60 268.40 617.00 266.30 C 617.00 264.80 615.80 263.90 614.60 263.90 L 614.30 263.90 C 606.30 263.90 598.50 265.40 591.10 267.80 C 586.90 269.30 583.40 272.30 578.90 274.00 C 575.60 275.50 572.70 277.90 570.30 280.50 C 566.40 284.10 565.50 283.50 568.20 278.70 C 573.60 268.90 578.00 259.10 582.50 248.60 C 583.70 245.60 584.60 242.40 584.90 239.40 C 585.50 235.20 587.00 231.10 587.60 226.90 C 588.50 221.20 589.10 215.30 589.40 209.60 C 589.70 207.80 590.00 207.80 590.60 209.60 C 591.00 211.80 591.30 213.50 591.30 215.60 Z" fill="#879e86" fill-rule="nonzero" node-id="71" stroke="none" target-height="131.09999" target-width="96.69995" target-x="527.9" target-y="207.8"></path><path d="M 617.80 278.40 L 602.00 300.10 C 594.90 307.20 587.40 313.80 579.40 319.40 C 565.70 329.50 548.50 334.90 532.10 341.40 C 524.10 344.70 518.70 342.60 512.50 350.30 C 504.50 360.40 484.20 393.40 470.50 393.40 C 456.80 393.40 447.30 386.90 441.60 372.90 C 441.30 372.30 440.40 372.00 439.80 372.30 C 439.50 372.30 439.50 372.60 439.20 372.60 C 433.00 380.00 423.40 383.90 413.90 383.30 C 401.70 382.10 390.70 375.00 385.00 364.30 C 384.70 363.40 383.80 362.80 382.60 362.80 C 372.50 362.20 363.00 359.80 353.70 355.40 C 351.00 354.20 348.60 352.40 346.60 350.30 C 342.70 346.40 337.40 339.30 340.10 333.60 C 341.90 329.70 344.90 326.80 348.40 324.40 C 354.60 320.50 361.50 316.70 368.30 312.80 C 369.20 312.20 369.20 311.60 368.30 311.00 L 357.90 303.30 C 356.70 302.40 355.20 301.50 354.30 300.30 C 352.20 297.60 352.80 297.30 355.50 298.80 C 362.30 302.40 368.30 306.50 373.90 311.90 C 374.80 312.80 374.80 313.40 373.60 314.00 C 364.70 317.90 355.70 322.00 347.40 327.10 C 345.00 328.60 343.20 331.00 342.00 333.30 C 341.40 334.20 341.40 335.10 341.70 336.00 C 342.30 339.30 344.40 342.00 347.10 343.70 C 356.90 350.50 366.40 356.50 379.20 354.70 C 382.50 354.10 385.70 353.50 389.30 352.90 C 390.50 352.60 390.80 353.20 390.20 354.10 C 389.90 355.00 389.00 355.90 388.10 356.50 C 387.20 356.80 386.90 357.70 387.20 358.60 L 387.20 358.60 C 388.40 362.20 390.20 365.70 392.90 368.40 C 409.60 383.60 432.50 377.60 444.70 360.70 C 446.80 357.70 447.10 358.00 446.20 361.30 C 443.20 370.50 445.90 378.30 454.50 384.20 C 464.60 391.00 473.50 390.20 481.60 380.90 C 490.20 371.10 498.60 361.30 506.30 350.80 C 510.20 345.70 514.60 341.30 519.70 337.10 C 528.90 329.40 537.30 321.00 545.00 311.50 C 546.80 314.50 545.00 317.70 539.60 321.90 C 538.70 322.50 538.10 323.10 537.80 324.30 C 537.50 324.60 537.50 324.90 537.20 325.50 C 537.20 325.80 536.90 326.10 536.60 326.40 C 533.60 328.80 530.90 331.50 528.30 334.10 C 527.70 334.70 527.40 335.30 527.70 335.90 C 527.70 336.20 528.00 336.50 528.00 336.80 C 528.60 337.40 529.20 337.70 530.10 337.10 C 540.50 332.60 551.20 328.50 561.90 324.60 C 568.70 321.60 575.30 317.80 580.90 313.00 C 587.40 307.90 597.00 298.10 609.20 282.90 C 610.10 281.70 611.00 280.20 611.90 278.70 C 613.90 276.30 616.00 276.00 617.80 278.40 Z" fill="#706e6d" fill-rule="nonzero" node-id="73" stroke="none" target-height="117.399994" target-width="280.4" target-x="337.4" target-y="276"></path><path d="M 350.30 297.70 C 352.40 300.40 355.10 302.50 358.30 303.70 L 368.70 311.40 C 369.60 312.00 369.60 312.60 368.70 313.20 C 361.90 317.10 355.30 320.90 348.80 324.80 C 345.20 326.90 342.30 330.20 340.50 334.00 C 337.80 339.70 343.20 346.80 347.00 350.70 C 349.10 352.80 351.50 354.60 354.10 355.80 C 363.00 360.00 372.80 362.60 383.00 363.20 C 383.90 363.20 384.80 363.80 385.40 364.70 C 391.40 375.40 402.10 382.60 414.30 383.70 C 418.80 384.60 423.20 385.20 427.70 385.50 C 431.90 385.80 435.70 387.00 439.30 388.80 C 445.00 391.80 450.30 395.30 455.70 399.20 C 458.10 401.00 460.80 402.20 463.70 402.50 C 472.90 403.40 482.10 402.80 491.10 401.00 L 491.10 401.00 L 491.10 401.00 C 490.80 401.00 490.50 401.30 490.50 401.60 C 490.50 401.90 490.50 402.20 490.80 402.50 L 490.80 402.50 C 492.60 403.40 494.10 404.60 495.30 406.40 C 495.90 407.30 496.80 407.90 497.70 408.20 L 509.90 412.40 C 510.50 412.70 511.10 413.00 511.70 413.60 L 516.80 420.40 C 517.40 421.30 518.00 421.90 519.20 422.20 C 524.90 424.30 530.20 426.70 535.60 429.30 C 546.30 435.80 556.40 443.30 566.20 451.00 C 560.80 462.30 562.00 473.00 570.10 483.40 C 573.40 487.60 577.80 490.50 583.20 491.70 C 611.80 498.20 637.70 477.10 615.60 448.60 C 623.60 456.90 634.30 462.00 645.70 462.90 L 651.90 493.30 C 640.90 491.50 629.60 492.40 618.90 496.30 C 612.90 497.50 607.60 500.20 603.10 504.30 C 598.90 507.90 596.90 512.90 596.60 518.30 C 596.30 528.40 600.50 538.20 607.90 545.10 C 614.70 551.10 623.70 554.00 632.60 554.00 C 646.00 554.90 658.80 549.20 666.80 538.80 C 676.30 527.50 676.30 515.30 667.10 501.90 C 665.90 498.60 664.10 495.70 662.00 493.00 C 661.10 492.10 659.90 491.80 658.70 492.10 L 659.00 485.60 L 673.00 492.40 C 673.90 492.70 674.50 493.30 675.10 494.20 C 675.40 494.50 675.70 494.80 676.00 495.10 C 682.80 497.50 689.70 500.20 695.90 503.40 C 702.10 507.00 706.60 507.60 709.30 505.20 C 711.40 520.70 709.00 536.70 702.80 551.00 C 701.30 554.90 699.50 559.00 698.00 563.80 C 697.70 564.40 698.00 565.00 698.60 565.00 C 698.90 565.00 698.90 565.00 699.20 565.00 C 701.60 564.40 703.40 564.70 704.00 566.20 L 699.20 566.50 C 698.30 566.50 697.40 566.80 696.50 567.70 C 691.10 572.50 683.40 579.60 673.90 588.80 C 672.40 590.30 671.50 592.10 671.20 594.20 C 670.90 595.40 671.50 595.70 672.40 594.80 C 682.80 586.20 694.10 578.70 706.30 572.50 C 707.50 571.60 708.40 570.40 708.70 568.90 C 710.80 570.40 712.30 572.50 713.20 574.90 C 722.10 595.40 726.90 617.50 727.20 639.80 C 725.40 638.90 723.00 638.90 721.20 640.40 C 720.60 641.00 720.00 641.30 719.10 641.60 C 716.40 642.50 714.00 643.70 711.70 645.20 C 709.40 646.70 706.90 647.60 704.30 648.20 C 700.40 649.10 696.90 649.70 693.00 649.70 C 683.50 650.30 680.50 658.60 682.60 666.70 C 684.40 673.50 690.30 681.30 690.00 690.50 C 688.20 691.40 686.70 692.90 685.50 694.70 C 680.70 698.00 673.30 701.50 667.60 699.20 C 666.70 698.90 666.10 698.00 665.80 697.10 L 662.80 686.40 C 661.00 671.50 657.10 656.90 651.20 643.30 C 639.90 619.50 618.80 601.60 593.50 594.50 C 578.90 589.70 564.00 586.80 548.90 585.60 L 506.60 583.20 C 510.80 581.40 514.30 579.00 517.30 575.80 C 526.50 568.10 533.70 557.60 537.50 546.00 C 539.60 540.90 538.40 535.00 534.50 531.10 C 529.10 525.70 522.90 521.60 516.10 518.60 C 509.90 512.40 503.30 509.70 496.50 510.60 C 492.90 508.50 488.80 507.30 484.60 507.30 C 483.70 507.30 482.80 507.60 482.50 508.50 C 480.10 513.90 475.70 518.00 470.00 520.10 C 454.80 526.10 462.60 500.50 445.00 506.40 C 438.80 507.90 433.70 512.60 431.90 519.20 C 430.40 524.90 428.00 527.50 422.40 527.80 C 421.50 527.80 420.60 527.50 420.00 526.60 C 417.60 523.60 416.10 520.10 416.10 516.20 C 416.10 515.00 415.20 514.10 414.00 514.10 C 413.70 514.10 413.40 514.10 413.10 514.40 C 402.40 519.50 392.60 526.60 383.90 534.90 L 382.40 535.20 C 381.50 535.20 380.90 536.10 380.90 537.00 C 380.90 537.30 380.90 537.90 380.90 538.20 C 380.90 538.50 380.60 539.10 380.00 538.50 C 377.30 535.80 374.60 533.10 372.00 530.50 C 369.30 527.80 366.30 525.40 363.40 523.40 C 357.40 518.90 351.50 514.50 345.80 509.40 C 344.30 507.90 342.80 506.10 341.60 504.30 C 340.40 502.50 339.20 500.70 338.00 498.90 C 337.40 498.00 336.50 497.70 335.60 497.70 C 333.80 497.70 331.70 497.10 330.50 495.60 C 339.70 492.90 346.00 489.90 348.90 486.70 C 361.10 473.00 360.80 459.60 348.60 446.20 C 345.90 443.50 341.50 441.70 334.90 440.80 C 323.00 439.30 313.80 442.30 306.90 449.70 C 291.40 466.10 292.60 480.90 309.90 494.60 C 312.60 495.50 311.70 496.70 307.50 498.50 L 307.50 498.50 L 307.50 499.70 C 307.50 500.00 307.50 500.00 307.20 499.70 C 306.60 499.10 305.40 499.10 303.60 499.70 L 293.50 496.10 C 287.30 491.90 278.90 491.00 268.20 493.10 L 272.10 455.30 C 272.40 452.60 271.20 451.70 268.50 452.30 C 267.00 452.90 265.50 454.70 264.00 458.30 C 259.20 469.90 257.80 482.70 259.20 495.20 C 257.70 498.20 255.90 499.40 253.50 499.10 C 252.90 499.10 252.30 498.50 252.30 497.90 C 252.30 497.90 252.30 497.90 252.30 497.60 C 252.30 497.00 252.30 496.70 252.00 496.10 C 249.90 493.70 247.20 492.20 244.00 492.20 C 241.90 492.20 240.10 491.30 238.90 489.80 C 238.30 488.90 236.80 488.60 235.90 489.50 C 235.60 489.80 235.60 489.80 235.30 490.10 C 235.30 490.40 235.30 490.70 235.30 491.00 C 235.30 491.30 235.30 491.30 235.00 491.30 C 230.50 491.00 226.10 489.80 221.90 488.30 C 221.30 488.00 220.40 487.70 220.10 487.10 C 219.20 486.20 218.30 486.50 217.70 487.40 C 216.80 488.90 216.20 488.90 216.20 487.10 C 216.20 485.30 216.20 483.50 215.90 481.70 C 215.90 481.70 215.90 481.40 215.60 481.40 L 214.70 481.40 C 214.10 481.40 213.80 481.70 213.80 482.30 L 213.80 482.30 C 214.40 493.60 210.20 498.70 204.00 506.10 L 198.60 513.80 C 196.80 516.50 194.40 518.90 191.50 520.30 C 193.60 514.30 195.70 508.40 198.00 502.40 C 199.80 498.20 202.50 494.40 205.70 491.10 C 209.60 487.20 212.80 482.50 214.90 477.40 C 217.30 469.70 218.80 461.60 219.10 453.60 C 219.40 453.90 220.60 453.30 222.70 451.50 L 219.70 468.20 C 219.70 468.80 220.00 469.40 220.60 469.40 L 221.50 469.70 C 221.80 469.70 222.10 469.70 222.10 469.40 L 222.10 469.40 C 232.50 431.60 246.20 399.80 263.20 373.60 C 279.00 349.50 302.20 326.90 332.80 306.10 C 337.00 307.30 339.30 304.90 339.60 299.30 C 341.70 298.70 343.80 298.70 345.80 299.00 C 349.10 299.50 350.30 299.20 350.30 297.70 Z M 406.80 491.50 C 408.00 491.20 407.70 487.90 406.50 484.70 C 405.30 481.40 403.20 479.00 402.00 479.60 C 400.80 480.20 401.10 483.20 402.30 486.40 C 403.80 489.70 405.90 492.10 406.80 491.50 L 406.80 491.50 Z M 510.60 483.70 C 510.60 482.80 509.70 481.90 508.80 481.90 C 507.90 481.90 507.00 482.80 507.00 483.70 C 507.00 484.60 507.90 485.50 508.80 485.50 L 508.80 485.50 C 509.70 485.80 510.60 484.90 510.90 484.00 L 510.90 483.70 L 510.60 483.70 Z" fill="#a7b9ac" fill-rule="nonzero" node-id="75" stroke="none" target-height="403.8" target-width="535.7" target-x="191.5" target-y="297.7"></path><path d="M 340.10 299.80 C 339.80 305.50 337.40 307.50 333.30 306.60 C 306.20 317.00 282.70 334.60 265.80 357.80 L 265.80 356.00 C 265.80 354.50 265.20 354.20 264.00 354.80 L 261.30 356.30 C 260.40 356.90 259.50 356.60 258.90 356.00 L 222.30 327.40 C 222.60 325.90 222.00 324.10 220.50 323.20 C 220.20 322.90 220.20 322.60 220.50 322.30 L 220.50 322.30 L 221.10 321.70 C 221.40 321.40 222.00 321.10 222.30 321.40 L 222.30 321.40 C 235.70 330.30 251.50 338.70 262.20 350.90 C 263.10 351.80 264.30 352.10 265.50 351.20 L 265.80 350.90 C 284.20 329.50 307.20 312.50 333.30 301.50 C 335.40 301.00 337.80 300.40 340.10 299.80 Z" fill="#a5c9e0" fill-rule="nonzero" node-id="77" stroke="none" target-height="58" target-width="119.90001" target-x="220.2" target-y="299.8"></path><path d="M 602.00 300.10 C 614.50 308.10 622.20 313.20 625.50 315.30 C 628.20 316.20 629.40 319.20 628.50 321.80 C 628.50 322.10 628.50 322.10 628.20 322.40 C 627.90 323.30 627.90 324.20 628.80 324.80 C 648.40 342.40 663.60 364.40 673.40 389.10 C 681.10 407.30 687.40 426.00 692.40 445.00 C 692.40 445.60 692.70 445.90 693.30 445.90 C 693.90 446.20 694.50 445.90 694.80 445.30 C 695.10 445.00 695.10 444.70 694.80 444.10 C 694.50 443.50 694.50 442.90 694.80 442.30 L 700.50 459.60 L 709.40 505.10 C 706.70 507.20 702.30 506.60 696.00 503.30 C 689.50 500.00 682.90 497.30 676.10 495.00 C 675.80 494.70 675.50 494.40 675.20 494.10 C 674.60 493.50 674.00 492.90 673.10 492.30 L 659.10 485.50 C 658.80 473.30 656.10 461.10 651.10 450.10 C 649.90 447.10 648.10 445.90 645.70 446.50 C 643.90 446.80 642.70 448.60 643.00 450.40 L 645.10 462.90 C 633.80 462.00 622.80 456.90 615.00 448.60 C 602.20 435.80 577.20 434.30 565.60 451.00 C 555.80 443.30 545.70 436.10 535.00 429.30 C 529.60 426.60 524.30 424.20 518.60 422.20 C 517.70 421.90 516.80 421.30 516.20 420.40 L 511.10 413.60 C 510.80 413.00 510.20 412.40 509.30 412.40 L 497.10 408.20 C 496.20 407.90 495.30 407.30 494.70 406.40 C 493.50 404.90 492.00 403.40 490.20 402.50 C 489.90 402.50 489.60 401.90 489.90 401.60 L 489.90 401.60 C 489.90 401.30 490.20 401.00 490.50 401.00 L 490.50 401.00 L 490.50 401.00 C 481.60 402.80 472.10 403.40 463.10 402.50 C 460.10 402.20 457.40 401.00 455.10 399.20 C 449.70 395.30 444.40 392.10 438.70 388.80 C 435.10 387.00 431.00 385.80 427.10 385.50 C 422.60 385.20 418.20 384.30 413.70 383.70 C 423.20 384.30 432.70 380.40 439.00 373.00 C 439.60 372.40 440.20 372.40 440.80 373.00 C 440.80 373.00 441.10 373.30 441.10 373.60 C 446.80 387.30 456.30 394.10 470.00 394.10 C 483.70 394.10 503.90 361.10 512.00 351.00 C 518.20 343.30 523.60 345.30 531.60 342.10 C 548.00 335.60 565.20 330.20 578.90 320.10 C 587.40 313.80 594.90 307.30 602.00 300.10 Z" fill="#9bb9c4" fill-rule="nonzero" node-id="79" stroke="none" target-height="207.1" target-width="295.7" target-x="413.7" target-y="300.1"></path><path d="M 333.30 306.70 C 302.70 327.80 279.40 350.10 263.70 374.20 C 246.40 400.40 232.80 432.50 222.60 470.00 C 222.60 470.30 222.30 470.60 222.00 470.30 L 222.00 470.30 L 221.10 470.00 C 220.50 469.70 220.20 469.40 220.20 468.80 L 223.20 452.10 C 229.40 421.50 241.40 392.00 258.60 365.80 L 265.70 357.50 C 283.00 334.60 306.50 317.10 333.30 306.70 Z" fill="#f6f7f9" fill-rule="nonzero" node-id="81" stroke="none" target-height="163.9" target-width="113.09999" target-x="220.2" target-y="306.7"></path><path d="M 737.40 352.20 C 737.70 353.10 737.70 353.70 737.40 354.60 C 737.40 354.90 737.10 355.20 736.80 355.20 L 736.80 355.20 L 735.90 355.20 C 735.60 355.20 735.30 355.20 735.00 355.80 C 735.00 355.80 735.00 355.80 735.00 356.10 C 735.30 367.70 735.60 380.20 735.60 392.70 C 735.60 408.20 734.10 419.80 730.80 427.20 C 729.60 431.40 727.20 435.20 724.30 438.50 C 718.30 443.30 712.10 447.10 705.30 450.40 C 704.10 451.00 702.30 450.40 701.70 449.20 C 701.70 448.90 701.40 448.90 701.40 448.60 C 698.40 434.60 694.30 420.90 688.90 407.50 C 682.10 390.50 674.90 373.90 667.20 357.50 C 666.90 356.60 666.90 355.70 667.20 354.80 L 668.70 351.50 C 669.00 351.20 669.00 350.90 668.70 350.60 L 668.40 350.30 C 668.10 350.30 667.80 350.00 667.50 350.00 C 667.80 349.70 667.80 349.70 667.80 349.40 C 668.10 349.10 668.40 348.50 668.70 348.20 C 682.40 336.60 698.50 328.30 716.00 323.20 C 719.60 322.30 723.10 321.70 727.00 321.40 C 729.70 321.10 732.10 323.20 732.40 325.60 L 737.40 352.20 Z" fill="#8abbda" fill-rule="nonzero" node-id="83" stroke="none" target-height="129.9" target-width="70.79999" target-x="666.9" target-y="321.1"></path><path d="M 222.30 327.80 L 258.90 356.40 C 259.50 357.00 260.70 357.00 261.30 356.70 L 264.00 355.20 C 265.20 354.60 265.80 354.90 265.80 356.40 L 265.80 358.20 L 258.70 366.50 C 259.90 364.70 259.30 363.80 257.20 363.80 C 256.60 363.80 255.70 364.10 255.40 364.70 C 244.70 380.80 235.80 397.70 228.60 415.90 C 225.00 424.80 222.40 433.80 220.90 443.30 C 220.60 445.40 218.50 446.90 216.40 446.30 C 215.80 446.30 215.50 446.00 214.90 445.70 C 206.00 439.70 191.40 429.00 189.30 419.20 C 186.30 406.10 186.30 389.40 189.30 369.20 C 198.20 353.70 209.50 339.70 222.30 327.80 Z" fill="#56aac1" fill-rule="nonzero" node-id="85" stroke="none" target-height="119.100006" target-width="79.499985" target-x="186.3" target-y="327.8"></path><path d="M 667.80 349.80 C 668.10 349.80 668.40 350.10 668.70 350.10 C 669.00 350.10 669.30 350.70 669.30 351.00 C 669.30 351.00 669.30 351.00 669.30 351.30 L 667.80 354.60 C 667.50 355.50 667.50 356.40 667.80 357.30 C 675.20 373.70 682.70 390.30 689.50 407.30 C 694.90 420.70 699.00 434.40 702.00 448.40 C 702.30 449.90 703.80 450.80 705.30 450.50 C 705.60 450.50 705.60 450.50 705.90 450.20 C 712.70 446.90 719.00 443.10 724.90 438.30 C 727.90 435.00 730.30 431.20 731.40 427.00 C 734.40 419.60 736.20 408.00 736.20 392.50 C 736.20 379.70 735.90 367.50 735.60 355.90 C 735.60 355.60 735.90 355.30 736.20 355.30 C 736.20 355.30 736.20 355.30 736.50 355.30 L 737.40 355.30 C 737.70 355.30 738.00 355.30 738.30 355.00 L 738.30 355.00 C 738.60 354.10 738.60 353.50 738.30 352.60 C 742.20 384.70 743.40 406.80 734.10 434.10 C 728.70 450.20 709.40 449.00 704.00 460.30 C 703.70 460.90 702.80 460.60 701.60 459.70 L 695.90 442.40 C 687.90 410.30 676.00 379.30 659.90 350.20 C 659.60 349.90 659.90 349.60 660.20 349.60 L 660.20 349.60 C 660.50 349.30 660.80 349.30 661.40 349.60 L 661.40 349.60 C 662.70 352.20 665.40 352.50 667.80 349.80 Z" fill="#677099" fill-rule="nonzero" node-id="87" stroke="none" target-height="111.600006" target-width="83.80005" target-x="659.6" target-y="349.3"></path><path d="M 258.60 366.20 C 241.30 392.40 229.10 421.80 223.20 452.50 C 221.10 454.00 219.90 454.60 219.60 454.60 C 214.50 452.20 209.50 449.50 204.70 446.60 C 194.90 441.20 187.40 432.30 184.50 421.30 C 181.50 410.00 181.50 392.40 183.90 379.60 C 184.80 375.70 186.90 371.90 189.60 368.90 C 186.60 389.10 186.60 406.10 189.60 418.90 C 191.70 428.70 206.30 439.40 215.20 445.40 C 217.00 446.60 219.40 446.00 220.60 444.20 C 220.90 443.90 220.90 443.30 221.20 442.70 C 222.70 433.50 225.40 424.30 228.90 415.30 C 236.00 397.40 245.00 380.20 255.70 364.40 C 256.00 363.80 256.90 363.50 257.50 363.50 C 259.50 363.80 259.80 364.70 258.60 366.20 Z" fill="#4c6daa" fill-rule="nonzero" node-id="89" stroke="none" target-height="91.100006" target-width="78.29999" target-x="181.5" target-y="363.5"></path><path d="M 614.80 448.00 C 637.10 476.90 610.90 498.00 582.40 491.10 C 577.30 489.90 572.60 486.90 569.30 482.80 C 561.30 472.40 559.80 461.40 565.40 450.40 C 577.00 433.70 602.00 435.20 614.80 448.00 Z M 614.20 473.90 C 613.60 468.80 604.70 465.60 594.30 466.80 C 583.90 468.00 575.90 473.00 576.40 478.10 C 577.00 483.20 585.90 486.40 596.30 485.20 C 606.80 484.00 614.80 479.00 614.20 473.90 L 614.20 473.90 Z" fill="#0b0e1e" fill-rule="nonzero" node-id="91" stroke="none" target-height="64.29999" target-width="77.29999" target-x="559.8" target-y="433.7"></path><path d="M 329.70 495.90 L 309.20 495.00 C 291.90 481.30 290.80 466.10 306.20 450.10 C 313.00 442.70 322.60 439.70 334.20 441.20 C 340.70 442.10 345.20 443.90 347.90 446.60 C 360.10 460.00 360.40 473.40 348.20 487.10 C 345.20 490.30 339.00 493.20 329.70 495.90 Z M 342.50 477.80 C 341.90 472.40 333.00 469.20 322.60 470.40 C 312.20 471.60 304.20 476.90 304.70 482.30 C 305.30 487.70 314.20 490.90 324.60 489.70 C 335.00 488.50 343.10 482.80 342.50 477.80 L 342.50 477.80 Z" fill="#0c0809" fill-rule="nonzero" node-id="93" stroke="none" target-height="56.19998" target-width="69.600006" target-x="290.8" target-y="439.7"></path><path d="M 658.80 485.20 L 658.50 491.70 C 659.10 492.90 656.70 493.20 651.40 492.60 L 644.90 462.20 L 642.80 449.70 C 642.50 447.90 643.70 446.10 645.50 445.80 C 647.90 445.20 649.70 446.40 650.90 449.40 C 655.90 460.80 658.50 473.00 658.80 485.20 Z" fill="#0b0e1e" fill-rule="nonzero" node-id="95" stroke="none" target-height="48" target-width="16.599976" target-x="642.5" target-y="445.2"></path><path d="M 267.80 493.80 C 265.10 495.60 261.80 496.20 258.90 495.60 C 257.10 483.10 258.90 470.60 263.70 458.70 C 265.20 455.10 266.70 453.30 268.20 452.70 C 270.90 452.10 272.10 453.00 271.80 455.70 L 267.80 493.80 Z" fill="#0c0809" fill-rule="nonzero" node-id="97" stroke="none" target-height="44.100006" target-width="15" target-x="257.1" target-y="452.1"></path><path d="M 700.50 459.30 C 701.70 460.20 702.60 460.50 702.90 459.90 C 704.10 469.70 711.20 470.90 715.40 476.60 C 718.70 481.10 721.90 485.50 724.90 490.30 C 725.20 491.20 726.10 491.50 727.00 490.90 L 727.00 490.90 C 729.40 490.00 731.20 488.20 732.70 486.10 L 768.40 473.30 C 767.80 481.90 767.20 490.30 767.20 498.30 C 767.20 501.90 767.80 505.10 769.30 508.40 C 770.80 511.70 772.60 514.60 774.40 517.60 C 773.80 520.90 772.60 524.10 771.10 526.80 L 766.60 535.40 C 765.40 538.40 763.90 541.10 762.10 543.70 C 761.80 544.30 761.20 544.60 760.90 544.60 C 760.00 544.90 759.40 545.20 758.80 546.10 C 755.20 552.30 751.40 558.60 747.50 564.50 C 746.90 565.40 746.90 566.30 747.50 566.90 C 748.40 568.10 749.60 569.30 751.10 570.20 C 752.00 571.40 752.60 573.20 752.60 574.70 C 751.10 574.10 750.20 573.20 749.60 571.70 C 749.30 570.80 748.40 569.90 747.50 569.60 C 746.30 569.00 745.40 568.40 744.20 568.10 C 740.00 566.60 737.70 562.40 738.20 558.00 C 739.70 548.50 738.50 539.00 734.60 530.00 C 732.80 524.00 731.00 518.10 729.20 512.40 C 725.90 501.40 721.20 491.30 714.60 481.80 C 707.50 471.70 705.40 472.60 708.60 484.50 C 710.70 492.50 712.20 500.90 713.10 509.20 C 714.30 517.20 714.00 525.60 712.20 533.60 C 710.10 542.80 706.20 551.80 700.90 559.50 C 700.60 560.10 700.60 561.00 701.20 561.30 C 701.50 561.30 701.50 561.60 701.80 561.60 C 714.30 563.70 720.00 577.10 723.50 588.40 C 728.00 605.40 730.60 622.90 731.80 640.50 L 731.50 650.90 C 728.80 659.50 724.40 667.90 718.10 674.70 C 708.60 683.30 697.00 689.60 684.50 692.90 C 685.70 691.10 687.20 689.90 689.00 688.70 C 701.50 683.90 712.50 675.60 720.80 664.90 C 726.50 657.20 728.50 647.30 726.50 638.10 C 726.20 615.80 721.40 593.80 712.50 573.20 C 711.60 570.80 709.80 568.70 708.00 567.20 L 703.20 564.50 C 702.60 563.00 701.10 562.70 698.40 563.30 C 697.80 563.30 697.20 563.00 697.20 562.40 C 697.20 562.10 697.20 562.10 697.20 561.80 C 698.70 557.00 700.50 552.90 702.00 549.00 C 708.50 534.70 710.60 518.60 708.50 503.20 L 700.50 459.30 Z" fill="#478dbe" fill-rule="nonzero" node-id="99" stroke="none" target-height="233.60004" target-width="89.900024" target-x="684.5" target-y="459.3"></path><g node-id="192"><path d="M 614.40 473.92 L 614.29 475.55 L 613.63 477.16 L 612.33 478.83 L 610.70 480.24 L 608.59 481.58 L 605.92 482.85 L 603.13 483.83 L 600.01 484.61 L 596.53 485.15 L 593.00 485.38 L 589.79 485.31 L 586.86 484.96 L 583.97 484.30 L 581.62 483.45 L 579.72 482.42 L 578.09 481.08 L 577.10 479.65 L 576.63 478.09 L 576.75 476.47 L 577.40 474.86 L 578.70 473.19 L 580.33 471.78 L 582.44 470.43 L 585.11 469.16 L 587.90 468.18 L 591.02 467.41 L 594.51 466.86 L 598.03 466.64 L 601.24 466.71 L 604.18 467.06 L 607.06 467.72 L 609.42 468.57 L 611.32 469.59 L 612.94 470.94 L 613.94 472.37 L 614.40 473.92 Z" fill="#185b84" fill-rule="nonzero" group-id="1" node-id="103" stroke="none" target-height="18.742188" target-width="37.771973" target-x="576.63153" target-y="466.63815"></path></g><path d="M 768.60 473.60 L 732.90 486.40 C 738.60 478.70 746.60 473.00 755.50 470.00 C 759.10 469.10 763.60 470.30 768.60 473.60 Z" fill="#a5c9e0" fill-rule="nonzero" node-id="106" stroke="none" target-height="17.299988" target-width="35.69995" target-x="732.9" target-y="469.1"></path><path d="M 342.69 477.76 L 342.59 479.50 L 341.95 481.22 L 340.68 482.97 L 339.05 484.48 L 336.95 485.90 L 334.30 487.24 L 331.52 488.27 L 328.40 489.08 L 324.92 489.65 L 321.40 489.88 L 318.19 489.79 L 315.24 489.41 L 312.36 488.70 L 309.99 487.79 L 308.07 486.68 L 306.44 485.26 L 305.43 483.73 L 304.94 482.06 L 305.04 480.33 L 305.68 478.61 L 306.95 476.86 L 308.58 475.35 L 310.68 473.93 L 313.33 472.59 L 316.11 471.56 L 319.22 470.74 L 322.71 470.18 L 326.22 469.95 L 329.44 470.04 L 332.38 470.42 L 335.27 471.12 L 337.63 472.04 L 339.56 473.14 L 341.19 474.56 L 342.20 476.09 L 342.69 477.76 Z" fill="#185b84" fill-rule="nonzero" group-id="2" node-id="110" stroke="none" target-height="19.93097" target-width="37.756805" target-x="304.93616" target-y="469.9474"></path><path d="M 735.30 530.70 C 736.20 536.40 737.10 541.70 737.40 547.40 C 737.70 551.00 737.10 554.50 735.60 557.80 C 734.10 561.10 732.60 564.30 731.10 567.60 C 730.80 567.90 730.50 568.50 729.90 568.50 L 729.00 568.80 C 728.40 569.10 727.80 569.70 727.50 570.60 L 723.90 589.30 C 720.30 578.00 714.70 564.60 702.20 562.50 C 701.30 562.50 701.00 561.60 701.00 561.00 C 701.00 560.70 701.00 560.70 701.30 560.40 C 706.70 552.40 710.20 543.70 712.60 534.50 C 714.40 526.50 714.70 518.10 713.50 510.10 C 712.60 501.80 711.10 493.40 709.00 485.40 C 706.00 473.50 707.80 472.60 715.00 482.70 C 721.50 491.90 726.30 502.30 729.60 513.30 C 731.40 519.10 733.20 525.10 735.30 530.70 Z" fill="#9bb9c4" fill-rule="nonzero" node-id="113" stroke="none" target-height="116.69998" target-width="36.700012" target-x="701" target-y="472.6"></path><path d="M 406.67 484.82 L 407.43 487.22 L 407.72 489.12 L 407.65 490.32 L 407.40 491.00 L 407.00 491.36 L 406.48 491.37 L 405.82 491.05 L 404.95 490.21 L 403.86 488.64 L 402.77 486.36 L 402.01 483.96 L 401.73 482.06 L 401.79 480.86 L 402.05 480.18 L 402.44 479.83 L 402.97 479.81 L 403.62 480.13 L 404.49 480.97 L 405.58 482.54 L 406.67 484.82 Z" fill="#89a479" fill-rule="nonzero" group-id="3" node-id="117" stroke="none" target-height="11.555847" target-width="5.9888916" target-x="401.7271" target-y="479.81277"></path><path d="M 259.20 495.60 C 262.20 496.20 265.40 495.30 268.10 493.80 C 278.50 491.70 286.80 492.60 293.40 496.80 C 287.40 496.80 281.50 497.40 275.80 498.60 C 266.30 500.70 260.30 501.90 258.80 502.50 C 251.70 504.60 245.40 509.00 240.90 515.00 C 240.30 515.60 240.00 516.50 240.00 517.40 C 238.80 529.90 243.90 542.40 253.70 550.40 C 258.20 554.30 263.50 556.60 269.20 557.20 C 275.40 558.10 281.70 558.10 287.90 557.20 C 291.50 556.60 295.00 555.40 298.30 553.60 C 301.60 551.80 304.80 550.30 308.10 548.50 C 312.90 545.80 316.40 541.40 317.90 536.30 C 319.10 533.00 319.70 529.50 319.40 525.90 C 319.40 522.30 319.10 518.80 319.10 514.90 C 319.10 514.00 318.50 513.10 317.90 512.50 L 303.30 500.30 C 304.80 499.70 306.00 499.70 306.90 500.30 C 307.20 500.60 307.20 500.60 307.20 500.30 L 307.20 499.10 L 307.20 499.10 C 311.40 497.30 312.30 496.10 309.60 495.20 L 330.10 496.10 C 331.60 497.60 333.40 498.20 335.20 498.20 C 336.10 498.20 337.00 498.80 337.60 499.40 C 338.80 501.20 340.00 503.00 341.20 504.80 C 342.40 506.60 343.60 508.40 345.40 509.90 C 351.10 514.70 357.00 519.40 363.00 523.90 C 366.00 526.00 369.00 528.40 371.60 531.00 C 374.30 533.70 377.00 536.40 379.60 539.00 C 380.20 539.60 380.50 539.30 380.50 538.70 C 380.50 538.10 380.50 537.80 380.50 537.50 C 380.50 536.60 381.10 535.70 382.00 535.70 L 383.50 535.40 C 380.80 544.60 386.20 550.30 391.50 559.20 C 397.20 572.00 408.50 580.90 422.10 583.60 C 411.40 584.50 400.70 585.40 390.00 585.40 C 374.80 586.30 359.90 588.40 345.40 591.90 C 327.80 595.50 301.40 607.10 288.90 622.30 C 280.00 629.70 273.40 639.90 270.20 650.90 C 269.00 647.90 266.30 645.80 263.40 645.20 C 261.60 644.60 259.80 643.70 258.30 642.20 C 257.10 640.70 255.60 639.50 253.80 638.60 C 251.10 637.40 247.80 636.80 244.90 637.10 C 242.50 637.40 240.40 638.60 238.70 640.40 C 231.00 648.10 225.90 653.50 214.30 649.00 C 209.20 646.90 207.80 643.60 209.80 639.20 C 209.80 630.90 211.30 622.50 214.30 614.80 C 214.60 613.90 215.50 613.30 216.40 613.60 C 216.70 613.60 217.30 613.90 217.30 614.20 C 219.10 616.60 221.80 618.40 224.70 619.60 C 227.40 620.50 230.10 619.30 231.20 616.60 C 231.20 616.30 231.50 616.00 231.50 615.40 C 232.40 609.20 229.70 602.90 224.40 599.30 C 223.50 598.10 222.00 598.10 220.80 599.00 C 220.50 599.30 220.20 599.90 219.90 600.20 C 217.80 604.10 214.50 606.40 212.80 610.90 C 208.60 620.10 203.90 629.30 199.10 638.60 C 198.50 639.80 197.00 640.10 196.10 639.20 C 195.80 638.90 195.50 638.90 195.50 638.60 C 194.60 637.10 193.10 637.10 191.60 638.90 C 194.60 627.60 198.70 616.60 203.50 605.90 C 203.20 603.80 204.40 602.60 207.10 602.60 C 208.90 602.60 210.40 602.00 211.60 600.80 L 221.40 592.50 C 222.00 591.90 222.60 591.00 223.20 590.40 C 224.40 588.30 226.80 586.80 229.20 587.10 L 251.50 586.20 C 259.80 589.80 267.00 595.40 272.30 602.90 C 275.60 607.40 277.70 612.70 278.50 618.10 C 278.80 619.30 279.40 619.60 280.30 618.40 C 281.50 616.90 281.80 614.80 280.60 613.00 C 272.30 598.70 260.70 587.10 246.70 578.50 C 246.40 578.20 245.80 578.50 245.50 578.80 C 245.50 578.80 245.50 579.10 245.50 579.40 C 245.80 580.60 246.40 581.50 247.00 582.40 L 229.40 568.10 C 228.20 566.90 226.40 567.20 225.20 568.40 L 212.10 581.50 C 208.80 571.40 204.70 561.60 199.30 552.30 C 197.50 549.30 195.40 541.90 193.10 530.30 C 192.80 529.10 192.20 528.80 191.30 529.70 C 191.00 530.00 190.70 530.60 190.70 531.20 C 189.80 527.90 190.40 524.40 192.20 521.70 C 195.20 520.20 197.60 517.80 199.30 515.20 L 204.70 507.50 C 210.90 499.80 215.10 495.00 214.50 483.70 C 214.50 483.10 214.80 482.80 215.40 482.80 L 215.40 482.80 L 216.30 482.80 C 216.30 482.80 216.60 482.80 216.60 483.10 C 216.60 484.90 216.90 486.70 216.90 488.50 C 216.90 490.30 217.50 490.30 218.40 488.80 C 219.00 487.60 219.90 487.60 220.80 488.50 C 221.40 489.10 222.00 489.40 222.60 489.70 C 226.80 491.20 231.20 492.40 235.70 492.70 C 236.00 492.70 236.00 492.70 236.00 492.40 C 236.00 492.10 236.00 491.80 236.00 491.50 C 236.60 490.30 238.10 490.00 239.00 490.60 C 239.30 490.60 239.60 490.90 239.60 491.20 C 240.80 492.70 242.60 493.60 244.70 493.60 C 247.70 493.90 250.70 495.40 252.70 497.50 C 253.00 497.80 253.30 498.40 253.00 499.00 C 253.00 499.60 253.30 500.20 253.90 500.50 C 253.90 500.50 253.90 500.50 254.20 500.50 C 255.90 499.80 257.70 498.60 259.20 495.60 Z" fill="#b9bb88" fill-rule="nonzero" node-id="120" stroke="none" target-height="170.70001" target-width="232.3" target-x="189.8" target-y="482.8"></path><path d="M 511.00 483.70 C 511.00 484.69 510.19 485.50 509.20 485.50 C 508.21 485.50 507.40 484.69 507.40 483.70 C 507.40 482.71 508.21 481.90 509.20 481.90 C 510.19 481.90 511.00 482.71 511.00 483.70 Z" fill="#6c906a" fill-rule="nonzero" node-id="122" stroke="none" target-height="3.600006" target-width="3.600006" target-x="507.4" target-y="481.9"></path><path d="M 651.40 492.60 C 656.80 492.90 659.10 492.60 658.50 491.70 C 659.70 491.40 660.90 491.70 661.80 492.60 C 663.90 495.30 665.70 498.30 666.90 501.50 C 666.00 506.00 665.40 510.40 665.10 514.90 C 664.80 519.40 663.90 523.80 662.10 527.70 C 651.70 546.70 625.20 548.20 610.60 533.40 C 607.90 530.40 606.40 526.60 606.40 522.70 C 605.80 518.50 606.70 514.40 608.50 510.50 C 610.90 507.50 612.70 504.30 614.20 500.70 C 614.80 498.60 616.60 496.50 618.70 495.30 C 628.80 491.80 640.40 490.60 651.40 492.60 Z" fill="#ffa490" fill-rule="nonzero" node-id="124" stroke="none" target-height="57.600006" target-width="61.100037" target-x="605.8" target-y="490.6"></path><path d="M 618.40 495.60 C 616.30 496.80 614.80 498.60 613.90 501.00 C 612.70 504.60 610.60 507.80 608.20 510.80 C 606.40 514.40 605.50 518.80 606.10 523.00 C 606.10 526.90 607.60 530.70 610.30 533.70 C 624.90 548.60 651.40 547.10 661.80 528.00 C 663.60 523.80 664.50 519.70 664.80 515.20 C 665.10 511.00 665.70 506.60 666.60 501.80 C 675.80 515.20 675.80 527.40 666.30 538.70 C 658.00 549.10 645.20 554.80 632.10 553.90 C 623.20 553.90 614.20 550.90 607.40 545.00 C 600.00 538.20 595.80 528.30 596.10 518.20 C 596.10 512.80 598.50 507.80 602.60 504.20 C 607.10 499.80 612.40 496.80 618.40 495.60 Z" fill="#f88b79" fill-rule="nonzero" node-id="126" stroke="none" target-height="59.19998" target-width="80" target-x="595.8" target-y="495.6"></path><path d="M 293.10 496.80 L 303.20 500.40 L 317.80 512.60 C 318.70 513.20 319.00 514.10 319.00 515.00 C 319.30 518.60 319.30 522.40 319.30 526.00 C 319.30 529.60 318.70 533.10 317.80 536.40 C 316.30 541.50 312.70 545.90 308.00 548.60 C 304.70 550.40 301.20 551.90 298.20 553.70 C 294.90 555.50 291.40 556.70 287.80 557.30 C 281.60 558.20 275.30 558.20 269.10 557.30 C 263.40 556.70 257.80 554.30 253.60 550.50 C 243.80 542.50 238.70 530.00 239.90 517.50 C 239.90 516.60 240.20 515.70 240.80 515.10 C 245.30 509.10 251.50 504.70 258.70 502.60 C 260.50 502.00 266.10 500.80 275.70 498.70 C 281.20 497.40 287.20 496.80 293.10 496.80 Z M 286.00 505.70 C 277.70 508.40 269.60 511.70 261.90 515.50 C 258.60 517.00 255.90 519.40 253.60 522.30 C 246.80 531.20 253.30 541.90 262.20 546.10 C 271.40 550.30 282.10 549.40 290.80 544.00 C 298.20 540.40 303.90 534.20 307.20 526.70 C 310.20 519.00 308.10 512.70 300.70 508.30 C 296.70 505.10 291.10 504.30 286.00 505.70 L 286.00 505.70 Z" fill="#fe8964" fill-rule="nonzero" node-id="128" stroke="none" target-height="61.400024" target-width="80.59999" target-x="238.7" target-y="496.8"></path><path d="M 286.00 505.70 C 291.10 504.20 296.70 505.10 301.20 508.10 C 308.60 512.60 310.70 518.80 307.70 526.50 C 304.40 533.90 298.50 540.20 291.30 543.80 C 282.70 549.20 272.00 549.80 262.70 545.90 C 253.80 542.00 247.20 531.00 254.10 522.10 C 256.20 519.10 259.20 517.00 262.40 515.30 C 269.60 511.70 277.70 508.40 286.00 505.70 Z" fill="#ffa490" fill-rule="nonzero" node-id="130" stroke="none" target-height="45.599976" target-width="63.500015" target-x="247.2" target-y="504.2"></path><path d="M 495.80 510.50 L 502.00 529.00 C 502.60 530.50 504.40 531.40 505.90 530.80 C 506.20 530.80 506.50 530.50 506.80 530.20 C 510.40 526.90 513.00 523.10 515.40 518.60 C 522.20 521.60 528.80 525.70 533.80 531.10 C 537.70 535.00 538.90 540.90 536.80 546.00 C 532.90 557.60 525.80 567.70 516.60 575.80 C 522.00 563.90 520.50 556.50 512.40 552.90 C 497.80 546.70 482.00 538.60 467.20 536.50 C 458.90 535.30 441.90 533.80 434.20 537.40 C 433.00 538.00 431.50 538.30 430.00 538.30 C 423.50 538.30 417.20 540.10 411.60 543.40 C 404.20 547.60 397.30 553.20 391.40 559.50 C 385.70 550.60 380.70 544.90 383.40 535.70 C 392.00 527.40 401.80 520.20 412.60 515.20 C 413.80 514.60 415.00 515.20 415.30 516.40 C 415.30 516.70 415.60 517.00 415.60 517.30 C 415.60 521.20 417.10 524.70 419.50 527.70 C 420.10 528.60 421.00 528.90 421.90 528.90 C 427.60 528.30 429.90 525.90 431.40 520.30 C 433.20 514.10 437.90 509.30 444.50 507.80 C 462.40 501.80 454.30 527.40 469.50 521.50 C 475.20 519.40 479.60 515.30 482.00 509.90 C 482.30 509.00 483.20 508.40 484.10 508.70 C 487.70 507.20 491.90 508.40 495.80 510.50 Z" fill="#7a2433" fill-rule="nonzero" node-id="132" stroke="none" target-height="74" target-width="158.20001" target-x="380.7" target-y="501.8"></path><path d="M 515.40 518.50 C 513.30 522.70 510.30 526.50 506.80 530.10 C 505.60 531.30 503.50 531.00 502.60 529.80 C 502.30 529.50 502.30 529.20 502.00 528.90 L 495.80 510.50 C 502.30 509.60 508.90 512.30 515.40 518.50 Z" fill="#f0d1cd" fill-rule="nonzero" node-id="134" stroke="none" target-height="21.699982" target-width="19.600037" target-x="495.8" target-y="509.6"></path><path d="M 774.90 517.90 C 783.20 525.00 784.70 531.60 779.40 537.80 C 775.20 542.60 771.40 547.60 768.10 553.00 L 766.30 556.00 C 765.70 556.90 765.40 557.80 765.40 558.70 C 764.50 563.80 762.70 568.20 759.70 572.10 C 758.80 573.30 757.60 573.90 756.10 573.90 C 754.00 573.60 752.50 572.40 751.30 570.60 C 749.80 569.70 748.90 568.80 747.70 567.30 C 747.10 566.40 747.10 565.50 747.70 564.90 C 751.60 558.90 755.10 552.70 759.00 546.50 C 759.30 545.90 760.20 545.30 761.10 545.00 C 761.70 545.00 762.00 544.70 762.30 544.10 C 764.10 541.40 765.60 538.40 766.80 535.80 L 771.60 527.20 C 773.10 524.50 774.30 521.20 774.90 517.90 Z" fill="#4c6daa" fill-rule="nonzero" node-id="136" stroke="none" target-height="56" target-width="37.600037" target-x="747.1" target-y="517.9"></path><path d="M 211.30 580.70 C 197.00 568.20 189.90 551.50 190.20 530.40 C 190.20 529.80 190.50 529.20 190.80 528.90 C 191.70 528.30 192.30 528.30 192.60 529.50 C 195.00 541.10 197.10 548.20 198.80 551.50 C 203.90 560.80 208.00 570.60 211.30 580.70 Z" fill="#819765" fill-rule="nonzero" node-id="138" stroke="none" target-height="52.400024" target-width="21.40001" target-x="189.9" target-y="528.3"></path><path d="M 735.30 530.70 C 739.20 539.30 740.40 549.10 738.90 558.70 C 738.30 563.20 740.70 567.30 744.90 568.80 C 746.10 569.10 747.00 569.70 748.20 570.30 C 749.10 570.90 749.70 571.50 750.30 572.40 C 750.90 573.90 751.80 574.80 753.30 575.40 C 753.30 576.90 754.20 578.10 755.40 578.70 C 756.60 579.60 757.20 580.80 756.90 582.30 C 756.90 583.80 757.50 585.30 758.70 586.20 C 761.40 588.30 762.90 591.60 762.90 595.10 C 762.90 596.60 763.50 597.80 764.40 598.70 C 767.70 602.00 770.40 606.10 771.80 610.60 C 775.40 621.30 778.30 632.30 780.70 643.30 C 781.30 646.60 781.60 649.80 781.00 653.10 C 780.70 656.40 779.80 656.70 778.30 653.70 C 776.50 651.30 775.30 648.60 774.70 646.00 C 774.70 640.30 773.50 634.70 771.40 629.30 C 769.60 625.70 766.90 622.80 763.40 621.00 C 762.20 620.40 760.70 620.70 760.10 621.60 C 755.90 626.70 751.50 631.70 746.70 636.50 C 744.90 638.30 742.80 639.80 740.70 641.00 C 737.10 642.80 734.70 643.10 733.00 641.90 C 732.10 624.30 729.40 606.80 725.30 589.80 L 728.90 571.10 C 728.90 570.20 729.50 569.60 730.40 569.30 L 731.30 569.00 C 731.90 569.00 732.20 568.70 732.50 568.10 C 734.00 564.80 735.50 561.60 737.00 558.30 C 738.50 555.00 739.10 551.50 738.80 547.90 C 736.80 542.00 736.20 536.40 735.30 530.70 Z" fill="#9998af" fill-rule="nonzero" node-id="140" stroke="none" target-height="126" target-width="56.299988" target-x="725.3" target-y="530.7"></path><path d="M 516.60 575.40 C 513.60 578.70 509.80 581.10 505.90 582.80 C 477.90 585.50 450.00 585.80 422.00 583.40 C 408.30 580.70 397.00 571.50 391.40 559.00 C 397.40 552.80 404.20 547.10 411.60 542.90 C 417.30 539.60 423.80 538.10 430.00 537.80 C 431.50 537.80 433.00 537.50 434.20 536.90 C 441.90 533.30 458.90 534.80 467.20 536.00 C 482.10 538.10 497.80 546.10 512.40 552.40 C 520.50 556.00 522.00 563.50 516.60 575.40 Z" fill="#df615d" fill-rule="nonzero" node-id="142" stroke="none" target-height="52.5" target-width="130.6" target-x="391.4" target-y="533.3"></path><path d="M 768.00 553.40 C 768.90 558.50 776.90 559.10 778.70 563.80 C 781.40 571.20 784.40 578.70 787.30 585.80 C 787.60 586.70 788.50 587.60 789.40 587.90 L 791.50 588.80 C 792.40 589.10 793.00 590.00 792.70 590.90 C 792.70 590.90 792.70 590.90 792.70 591.20 C 790.90 596.90 787.30 604.00 787.90 609.60 C 787.90 611.40 789.40 612.60 791.20 612.30 C 791.80 612.30 792.10 612.00 792.40 612.00 C 798.90 608.70 805.80 606.60 812.90 605.50 C 813.80 605.20 814.70 605.80 815.00 606.70 C 818.90 614.70 814.70 626.00 812.60 634.10 C 812.30 635.00 812.30 636.20 812.90 637.10 L 817.10 645.70 C 817.70 646.60 817.40 647.80 816.80 648.70 C 808.50 658.20 802.50 669.20 798.60 681.10 C 798.30 682.00 798.60 682.90 799.20 683.50 C 801.60 685.90 803.40 688.90 804.60 691.80 C 804.90 692.70 804.90 693.60 804.30 694.50 C 799.80 701.30 792.40 705.50 788.80 713.20 C 788.50 714.10 788.50 715.00 788.80 715.90 C 790.30 718.30 789.40 721.00 786.10 723.60 C 782.20 727.20 777.50 729.30 772.10 729.30 C 775.10 726.90 774.80 725.10 771.20 723.30 C 770.30 723.00 769.70 722.10 770.00 720.90 C 770.00 720.60 770.30 720.00 770.30 719.70 C 776.00 708.10 778.00 695.30 776.30 682.80 C 776.30 681.90 775.70 681.00 775.10 680.10 C 773.90 678.60 773.00 676.80 772.70 675.00 C 771.20 669.60 770.30 664.30 770.00 658.90 C 770.00 658.00 769.40 657.10 768.50 656.80 C 767.90 656.50 767.00 656.50 766.40 656.80 C 765.50 657.40 764.60 658.00 764.30 659.20 C 759.80 668.10 753.30 666.00 746.40 660.70 C 741.90 657.10 736.90 654.20 731.50 652.10 L 731.80 641.70 C 733.60 642.90 736.30 642.60 739.50 640.80 C 741.60 639.60 743.70 638.10 745.50 636.30 C 750.30 631.50 754.70 626.50 758.90 621.40 C 759.50 620.20 761.00 619.90 762.20 620.80 C 765.80 622.60 768.40 625.60 770.20 629.10 C 772.30 634.50 773.50 640.10 773.50 645.80 C 774.10 648.80 775.30 651.50 777.10 653.50 C 778.60 656.50 779.50 656.50 779.80 652.90 C 780.10 649.60 780.10 646.40 779.50 643.10 C 777.10 632.10 774.10 621.10 770.60 610.40 C 769.10 605.90 766.70 601.80 763.20 598.50 C 762.30 597.60 761.70 596.10 761.70 594.90 C 762.00 591.30 760.20 588.10 757.50 586.00 C 756.30 585.10 755.70 583.60 755.70 582.10 C 755.70 580.60 755.10 579.40 754.20 578.50 C 753.00 577.90 752.10 576.40 752.10 575.20 C 752.10 573.70 751.80 571.90 750.60 570.70 C 751.80 572.50 753.30 573.70 755.40 574.00 C 756.90 574.00 758.40 573.40 759.00 572.20 C 762.00 568.30 764.10 563.60 764.70 558.80 C 765.00 557.90 765.30 557.00 765.60 556.10 L 768.00 553.40 Z" fill="#5c84c6" fill-rule="nonzero" node-id="144" stroke="none" target-height="175.89996" target-width="87.400024" target-x="731.5" target-y="553.4"></path><path d="M 703.50 565.80 L 708.30 568.50 C 708.30 570.00 707.40 571.50 705.90 572.10 C 693.70 578.10 682.40 585.50 672.00 594.40 C 671.10 595.30 670.80 595.00 670.80 593.80 C 671.10 591.70 672.00 589.90 673.50 588.40 C 683.00 579.20 690.80 572.00 696.10 567.30 C 696.70 566.70 697.90 566.40 698.80 566.10 L 703.50 565.80 Z" fill="#ede4f0" fill-rule="nonzero" node-id="146" stroke="none" target-height="29.5" target-width="37.5" target-x="670.8" target-y="565.8"></path><path d="M 250.60 585.80 L 246.10 581.60 C 245.50 580.70 244.90 579.80 244.60 578.60 C 244.60 578.00 244.90 577.70 245.50 577.70 C 245.80 577.70 245.80 577.70 246.10 577.70 C 260.10 586.30 271.70 598.20 280.00 612.20 C 281.20 614.00 280.90 616.10 279.70 617.60 C 278.80 618.50 278.20 618.50 277.90 617.30 C 277.00 611.90 274.60 606.60 271.70 602.10 C 266.10 595.00 258.90 589.40 250.60 585.80 Z" fill="#819765" fill-rule="nonzero" node-id="148" stroke="none" target-height="40.799988" target-width="36.600006" target-x="244.6" target-y="577.7"></path><path d="M 505.90 582.80 L 548.20 585.20 C 563.40 586.40 578.30 589.40 592.80 594.10 C 618.10 601.20 639.20 619.10 650.50 642.90 C 649.60 645.00 649.60 647.70 650.80 649.70 C 651.10 650.30 651.10 651.50 650.50 652.10 C 650.20 652.40 649.90 652.70 649.60 652.70 C 648.70 653.00 648.10 653.90 648.40 654.80 C 649.00 659.00 649.30 662.80 649.00 667.00 C 649.00 670.00 646.90 672.70 643.90 673.20 C 643.60 673.20 643.30 673.20 643.30 672.60 C 643.30 672.30 643.60 672.00 643.90 671.70 C 644.50 671.40 644.50 671.40 643.90 671.10 L 642.40 670.50 C 642.10 670.20 641.50 670.50 640.90 670.50 C 638.80 671.70 636.70 673.50 635.50 675.60 C 634.90 676.50 634.30 676.80 633.10 676.80 C 631.90 676.80 631.00 676.50 630.10 675.90 C 629.20 675.30 628.30 675.00 627.40 675.30 C 623.50 675.60 619.70 676.20 615.80 676.50 C 611.90 676.80 608.10 675.30 604.80 677.70 C 601.80 679.80 598.60 681.30 595.30 681.60 C 591.70 681.90 588.20 681.00 585.20 679.20 C 580.10 676.20 574.80 673.50 569.10 671.80 C 568.80 671.80 568.50 671.50 568.50 671.20 C 568.20 670.90 567.90 670.60 567.90 670.30 C 567.30 669.40 566.70 668.80 565.80 668.80 L 546.80 663.70 C 546.20 663.40 545.60 663.40 544.70 663.40 C 543.20 663.70 542.00 662.80 541.70 661.30 C 541.40 660.40 540.80 659.50 539.90 658.90 C 539.00 658.30 537.80 658.00 536.60 657.70 C 535.40 657.40 533.90 657.10 532.70 656.80 C 528.80 655.30 525.00 654.10 520.80 653.50 C 515.40 652.90 510.40 652.00 505.00 650.80 C 504.10 650.50 503.20 650.80 502.60 651.40 C 502.00 652.00 501.10 652.00 500.50 651.40 C 499.90 651.10 499.30 651.10 498.70 651.10 C 496.00 650.80 493.00 650.80 490.40 651.10 C 488.00 651.40 485.60 651.10 483.00 650.80 C 480.00 650.20 477.00 649.60 474.10 649.00 C 471.10 648.40 468.10 647.80 465.50 646.90 C 459.80 645.10 454.20 643.60 448.20 642.40 C 447.90 642.40 447.60 642.40 447.60 642.70 C 447.60 643.00 447.60 643.30 447.30 643.60 C 447.00 643.90 446.40 644.20 446.10 643.90 C 446.10 643.90 446.10 643.90 445.80 643.90 C 443.70 642.10 441.30 640.90 439.00 640.00 C 433.30 639.10 427.70 638.50 421.70 638.50 C 419.90 638.50 418.40 637.90 416.90 637.30 C 416.00 636.70 415.10 636.70 414.20 637.00 C 410.60 637.90 406.80 638.50 403.20 638.20 C 402.00 638.20 400.80 638.50 399.60 639.10 C 398.40 639.70 397.20 640.00 396.00 640.00 C 378.70 639.70 361.50 639.40 344.20 639.10 C 332.30 638.80 320.10 637.00 308.50 634.30 C 307.60 634.00 306.70 634.30 306.10 634.90 C 302.80 638.50 297.20 639.10 293.00 636.10 C 292.10 635.50 291.20 635.20 290.30 635.20 L 287.30 635.20 C 286.70 635.20 285.80 634.90 285.50 634.30 C 285.20 633.40 284.30 633.10 283.70 633.10 C 282.80 633.10 282.50 632.80 283.10 631.90 L 287.90 622.70 C 300.10 607.50 326.90 595.90 344.40 592.30 C 359.00 589.00 373.90 586.60 389.00 585.80 C 399.70 585.50 410.10 584.90 421.10 584.00 C 449.90 585.80 477.90 585.50 505.90 582.80 Z" fill="#fef2e1" fill-rule="nonzero" node-id="150" stroke="none" target-height="99.10004" target-width="368.59998" target-x="282.5" target-y="582.8"></path><path d="M 209.50 639.30 C 206.80 642.00 204.40 644.70 202.70 647.90 C 202.10 649.10 201.50 650.30 200.60 651.20 C 197.00 652.40 196.10 654.80 197.90 658.00 C 207.10 674.40 220.80 687.20 237.80 695.50 L 224.70 692.80 C 224.40 692.80 223.80 692.80 223.50 693.10 L 221.70 694.30 C 221.40 694.60 221.10 694.60 220.80 694.30 C 219.90 694.00 219.60 693.10 220.20 691.60 C 220.20 689.80 219.00 688.30 216.60 687.40 C 213.00 686.50 210.10 684.70 208.00 681.70 C 197.60 667.10 189.00 657.90 191.30 638.60 C 192.80 636.80 194.30 636.80 195.20 638.30 C 195.80 639.50 197.30 639.80 198.20 638.90 C 198.50 638.60 198.80 638.60 198.80 638.30 C 203.90 629.10 208.30 619.90 212.50 610.60 C 214.30 606.40 217.60 604.10 219.60 599.90 C 219.90 598.40 221.40 597.80 222.90 598.10 C 223.50 598.40 223.80 598.70 224.10 599.00 C 229.20 602.60 231.80 608.80 231.20 615.10 C 230.90 617.80 228.20 619.90 225.50 619.30 C 225.20 619.30 224.90 619.30 224.30 619.00 C 221.30 618.10 218.60 616.30 216.90 613.60 C 216.30 612.70 215.40 612.70 214.50 613.00 C 214.20 613.30 213.90 613.60 213.90 613.90 C 211.00 623.00 209.50 631.00 209.50 639.30 Z" fill="#56795c" fill-rule="nonzero" node-id="152" stroke="none" target-height="97.70001" target-width="48.800003" target-x="189" target-y="597.8"></path><path d="M 288.70 622.10 L 283.90 631.30 C 283.60 631.90 283.60 632.50 284.50 632.50 C 285.40 632.50 286.00 632.80 286.30 633.70 C 286.60 634.30 287.20 634.90 288.10 634.60 L 291.10 634.60 C 292.00 634.60 292.90 634.90 293.80 635.50 C 298.00 638.50 303.60 637.90 306.90 634.30 C 307.50 633.70 308.40 633.40 309.30 633.70 C 320.90 636.40 333.10 638.20 345.00 638.50 C 362.30 638.80 379.50 639.10 396.80 639.40 C 398.00 639.40 399.20 639.10 400.40 638.50 C 401.60 637.90 402.80 637.60 404.00 637.60 C 407.90 637.90 411.40 637.60 415.00 636.40 C 415.90 636.10 416.80 636.40 417.70 636.70 C 419.20 637.60 420.70 637.90 422.50 637.90 C 428.20 637.90 434.10 638.50 439.80 639.40 C 442.50 640.30 444.90 641.50 446.60 643.30 C 446.90 643.60 447.50 643.60 447.80 643.30 C 447.80 643.30 447.80 643.30 447.80 643.00 C 448.10 642.70 448.10 642.40 448.10 642.10 C 448.10 641.80 448.10 641.50 448.70 641.80 C 454.70 643.00 460.30 644.50 466.00 646.30 C 469.00 647.20 471.70 648.10 474.60 648.40 C 477.60 649.00 480.60 649.60 483.50 650.20 C 485.90 650.80 488.30 650.80 490.90 650.50 C 493.60 650.20 496.60 650.20 499.20 650.50 C 499.80 650.50 500.40 650.80 501.00 651.10 C 501.60 651.70 502.50 651.70 503.10 651.10 C 503.70 650.50 504.60 650.50 505.50 650.50 C 510.60 651.70 515.90 652.60 521.30 653.20 C 525.50 653.80 529.30 655.00 533.20 656.50 C 534.40 656.80 535.60 657.40 537.10 657.40 C 538.30 657.70 539.50 658.00 540.40 658.60 C 541.30 659.20 541.90 660.10 542.20 661.00 C 542.50 662.20 543.70 663.10 545.20 663.10 C 545.80 663.10 546.40 663.10 547.30 663.40 L 566.30 668.50 C 567.20 668.80 567.80 669.40 568.40 670.00 C 568.70 670.30 569.00 670.60 569.00 670.90 C 569.30 671.20 569.30 671.20 569.60 671.50 C 575.30 673.60 580.60 676.00 585.70 678.90 C 588.70 681.00 592.20 681.90 595.80 681.30 C 599.40 681.00 602.60 679.50 605.30 677.40 C 608.60 675.00 612.70 676.50 616.30 676.20 C 619.90 675.90 624.00 675.60 627.90 675.00 C 628.80 675.00 629.70 675.00 630.60 675.60 C 631.50 676.20 632.70 676.50 633.60 676.50 C 634.50 676.50 635.40 676.20 636.00 675.30 C 637.20 673.20 639.00 671.40 641.40 669.90 C 641.70 669.60 642.30 669.60 642.90 669.90 L 644.40 670.50 C 645.00 670.80 645.00 670.80 644.40 671.10 C 644.10 671.10 643.80 671.70 643.80 672.00 C 643.80 672.30 644.10 672.60 644.40 672.60 C 647.40 672.00 649.50 669.30 649.50 666.40 C 649.80 662.20 649.50 658.10 648.90 654.20 C 648.60 653.30 649.20 652.40 650.10 652.10 C 650.40 651.80 650.70 651.80 651.00 651.50 C 651.60 650.90 651.60 650.00 651.30 649.10 C 650.10 647.00 650.10 644.30 651.00 642.30 C 657.00 656.00 660.80 670.60 662.60 685.40 C 663.20 707.10 657.80 728.80 647.10 747.60 C 641.40 749.70 635.80 751.50 629.80 753.00 C 628.00 753.60 626.20 753.90 624.40 753.90 C 622.60 754.20 620.50 754.50 618.70 754.80 C 611.60 756.90 604.40 757.80 597.00 758.10 C 595.20 758.10 593.10 758.70 591.60 759.60 C 588.00 762.00 583.90 763.50 579.70 764.10 C 565.10 766.20 549.10 768.60 530.90 771.50 C 519.30 773.60 507.40 774.80 495.80 775.70 C 464.30 777.20 431.80 777.80 398.80 777.80 C 390.50 777.80 380.10 777.20 368.20 776.00 C 358.10 775.10 347.70 774.20 337.30 773.90 C 331.60 773.60 325.70 773.00 320.00 771.80 C 315.20 770.60 310.20 770.30 305.10 770.60 C 296.50 770.90 290.80 765.20 282.20 764.40 C 281.30 764.40 280.40 763.80 279.80 762.90 C 278.60 761.10 276.80 759.90 275.00 758.70 L 263.40 735.80 C 259.50 723.00 257.40 709.90 257.20 696.80 C 259.30 680.70 263.70 665.30 270.00 650.70 C 273.20 639.60 279.70 629.80 288.70 622.10 Z" fill="#ffecd2" fill-rule="nonzero" node-id="154" stroke="none" target-height="155.70001" target-width="406" target-x="257.2" target-y="622.1"></path><path d="M 269.90 651.00 C 263.40 665.90 259.20 681.40 257.10 697.40 C 254.70 699.20 252.00 700.10 249.10 700.10 C 244.90 699.80 240.80 698.30 237.50 695.60 C 220.80 687.60 206.90 674.50 197.60 658.10 C 195.50 654.80 196.40 652.40 200.30 651.30 C 201.20 650.40 202.10 649.20 202.40 648.00 C 204.20 644.70 206.60 641.80 209.20 639.40 C 207.10 644.20 208.60 647.40 213.70 649.20 C 225.30 654.00 230.40 648.30 238.10 640.60 C 239.60 638.80 242.00 637.60 244.30 637.30 C 247.30 636.70 250.50 637.30 253.20 638.80 C 255.00 639.70 256.50 640.90 257.70 642.40 C 258.90 643.90 260.70 645.10 262.80 645.40 C 266.10 645.90 268.70 648.00 269.90 651.00 Z" fill="#89a479" fill-rule="nonzero" node-id="156" stroke="none" target-height="63.399963" target-width="74.399994" target-x="195.5" target-y="636.7"></path><path d="M 726.70 639.30 C 728.80 648.50 726.70 658.30 721.00 666.10 C 713.00 676.80 702.00 685.10 689.20 689.90 C 689.50 680.40 683.20 672.60 681.80 666.10 C 679.70 657.80 683.00 649.40 692.20 649.10 C 696.10 648.80 699.90 648.20 703.50 647.60 C 706.20 647.00 708.60 646.10 710.90 644.60 C 713.20 643.10 716.00 641.90 718.30 641.00 C 718.90 640.70 719.80 640.40 720.40 639.80 C 722.50 638.50 724.90 638.20 726.70 639.30 Z" fill="#7a8daa" fill-rule="nonzero" node-id="158" stroke="none" target-height="51.700012" target-width="49.099976" target-x="679.7" target-y="638.2"></path><path d="M 731.70 652.10 C 737.10 654.20 742.10 657.20 746.60 660.70 C 753.10 666.10 760.00 668.10 764.50 659.20 C 764.80 658.30 765.70 657.40 766.60 656.80 C 767.20 656.50 768.10 656.50 768.70 656.80 C 769.60 657.10 770.20 658.00 770.20 658.90 C 770.50 664.30 771.70 669.60 772.90 675.00 C 773.20 676.80 774.10 678.60 775.30 680.10 C 775.90 681.00 776.20 681.90 776.50 682.80 C 778.30 695.30 776.20 708.40 770.50 719.70 C 761.90 742.00 746.10 760.50 725.60 772.70 C 721.10 775.40 720.20 774.20 722.60 769.70 C 728.60 758.10 732.40 745.60 734.20 732.50 C 734.50 730.70 734.50 728.60 734.50 726.80 C 733.90 717.60 733.00 715.80 731.20 721.70 L 729.40 697.00 C 729.40 696.10 729.10 695.20 728.80 694.30 C 727.60 691.30 727.00 688.30 727.30 685.40 C 727.30 684.50 727.00 683.60 726.10 683.30 C 724.60 682.10 724.60 680.60 725.80 678.20 C 725.80 678.20 725.80 677.90 725.80 678.20 C 725.50 678.20 725.20 678.20 724.90 678.20 C 724.30 678.20 724.00 677.90 723.70 677.30 C 723.40 675.50 721.60 675.20 718.60 676.10 C 724.60 668.80 729.10 660.80 731.70 652.10 Z" fill="#9c839e" fill-rule="nonzero" node-id="160" stroke="none" target-height="123.30005" target-width="59.700012" target-x="718.6" target-y="652.1"></path><path d="M 718.30 675.60 C 721.30 674.70 723.10 675.00 723.40 676.80 C 723.40 677.40 724.00 677.70 724.60 677.70 C 724.90 677.70 725.20 677.70 725.50 677.70 C 725.80 677.70 725.80 677.70 725.50 677.70 C 724.00 680.10 724.30 681.60 725.80 682.80 C 726.70 683.40 727.00 684.00 727.00 684.90 C 727.00 687.90 727.60 690.90 728.50 693.80 C 728.80 694.70 729.10 695.60 729.10 696.50 L 730.90 721.20 C 730.30 737.30 725.80 753.00 717.80 767.00 C 708.60 767.60 699.40 769.10 690.70 772.10 C 682.70 775.40 675.20 779.20 668.10 784.30 C 665.10 786.10 662.10 787.60 658.90 788.80 C 655.60 789.70 652.40 791.50 650.00 794.20 C 647.30 797.20 644.30 799.90 641.40 802.20 C 637.50 804.60 633.40 807.00 629.50 809.00 C 623.80 812.00 618.20 811.10 612.50 814.40 C 611.60 815.00 610.40 815.00 609.50 815.00 C 605.00 814.40 600.90 812.90 597.00 810.80 C 596.10 810.20 595.50 809.30 595.20 808.40 C 594.60 805.70 595.50 802.70 597.60 801.00 C 598.80 800.10 598.50 799.50 597.30 799.50 C 595.80 799.20 594.60 799.50 593.10 799.80 C 614.20 787.00 632.40 769.40 646.10 748.60 C 657.10 729.60 662.50 708.10 661.60 686.40 L 664.60 697.10 C 664.90 698.00 665.50 698.60 666.40 699.20 C 672.40 701.90 679.50 698.00 684.30 694.70 C 697.20 690.80 708.80 684.60 718.30 675.60 Z" fill="#e2917e" fill-rule="nonzero" node-id="162" stroke="none" target-height="140.29999" target-width="137.80005" target-x="593.1" target-y="674.7"></path><path d="M 219.90 692.00 C 219.30 693.20 219.60 694.10 220.50 694.70 C 220.80 695.00 221.10 695.00 221.40 694.70 L 223.20 693.50 C 223.50 693.20 224.10 693.20 224.40 693.20 L 237.50 695.90 C 240.80 698.60 244.90 700.10 249.10 700.40 C 252.10 700.10 254.80 699.20 257.10 697.70 C 257.40 710.80 259.50 724.20 263.30 736.70 C 262.10 744.70 260.30 750.40 257.60 753.40 L 257.60 753.70 L 257.90 754.60 C 258.20 754.90 258.20 755.50 257.90 755.80 C 255.80 761.50 251.70 765.90 246.30 768.60 C 243.60 769.80 240.90 771.00 238.30 772.50 C 236.50 773.70 234.10 774.30 231.80 774.00 C 229.10 773.10 227.00 771.60 225.80 769.20 C 225.50 768.60 224.90 768.30 224.30 768.00 C 224.00 768.00 223.70 768.00 223.40 767.70 C 222.80 767.70 222.20 768.00 222.20 768.60 L 222.00 770.00 C 213.70 747.10 216.60 721.80 216.60 698.00 C 217.00 695.30 218.10 693.20 219.90 692.00 Z" fill="#fda567" fill-rule="nonzero" node-id="164" stroke="none" target-height="82.29999" target-width="49.59999" target-x="213.7" target-y="692"></path><path d="M 770.40 719.70 C 770.10 720.00 770.10 720.60 770.10 720.90 C 770.10 721.80 770.40 722.70 771.30 723.30 C 774.90 725.10 774.90 727.20 772.20 729.30 C 760.90 749.20 744.50 765.90 724.60 777.50 C 720.70 779.90 717.20 782.90 714.50 786.40 C 711.20 790.90 707.40 796.50 702.60 803.40 C 696.10 812.60 688.60 821.60 680.90 829.90 C 678.20 830.20 675.50 831.10 673.20 832.30 L 652.10 833.20 C 651.80 833.20 651.50 833.20 651.50 832.90 C 651.50 832.60 651.50 832.30 651.50 832.00 C 651.50 831.70 651.80 831.40 652.10 831.40 C 657.80 829.60 662.80 828.10 667.90 826.00 C 672.70 824.50 677.10 821.80 681.00 818.30 C 684.60 814.70 688.10 811.50 691.70 808.20 C 692.30 807.60 692.90 806.70 693.20 805.80 C 693.50 804.60 694.10 803.70 694.70 802.80 C 704.20 792.10 712.00 780.20 718.20 767.10 C 725.90 753.10 730.40 737.30 731.00 721.30 C 732.80 715.30 734.00 717.10 734.30 726.40 C 734.30 728.20 734.30 730.30 734.00 732.10 C 732.20 745.20 728.30 757.70 722.10 769.60 C 719.70 774.10 720.60 775.00 725.10 772.60 C 746.00 760.50 762.10 742.00 770.40 719.70 Z" fill="#b14f59" fill-rule="nonzero" node-id="166" stroke="none" target-height="117.900024" target-width="123.400024" target-x="651.5" target-y="715.3"></path><path d="M 263.40 736.30 L 275.00 759.20 C 284.80 774.10 297.90 786.60 313.10 795.50 C 311.60 794.90 310.70 794.60 310.40 794.90 C 309.80 796.70 310.40 798.80 312.20 800.00 C 322.30 806.50 333.00 811.90 344.30 816.40 C 345.50 817.00 346.10 818.20 345.80 819.70 C 345.50 820.30 345.20 820.60 344.60 820.90 L 325.30 830.70 C 324.10 831.30 324.10 831.90 325.30 832.50 L 326.80 833.70 L 323.50 833.70 C 318.70 826.30 310.70 821.20 301.50 820.30 C 295.50 820.00 289.30 821.20 283.90 824.20 C 281.20 825.10 279.70 827.80 280.00 830.40 C 280.00 831.30 279.70 831.60 279.10 831.00 L 277.90 829.80 C 277.30 829.20 276.40 828.90 275.50 829.20 C 270.10 829.80 264.50 828.00 260.60 824.40 C 252.90 817.90 246.60 809.80 241.90 800.90 C 240.70 798.80 239.20 796.70 237.40 794.90 C 235.60 793.10 234.10 791.30 233.20 788.90 C 232.30 786.80 230.20 785.60 228.10 785.90 L 221.90 770.10 L 222.20 768.60 C 222.20 768.00 222.80 767.70 223.40 767.70 C 223.70 767.70 224.00 767.70 224.30 768.00 C 224.90 768.30 225.50 768.60 225.80 769.20 C 227.00 771.60 229.10 773.40 231.80 774.00 C 234.20 774.30 236.60 774.00 238.30 772.50 C 241.00 771.00 243.70 769.80 246.30 768.60 C 251.70 765.90 255.80 761.50 257.90 755.80 C 258.20 755.50 258.20 754.90 257.90 754.60 L 257.60 753.70 L 257.60 753.40 C 260.10 750.00 261.90 744.40 263.40 736.30 Z" fill="#fe7b59" fill-rule="nonzero" node-id="168" stroke="none" target-height="97.400024" target-width="124.20001" target-x="221.9" target-y="736.3"></path><path d="M 646.60 748.00 C 632.90 768.80 614.80 786.40 593.60 799.50 C 581.10 807.50 567.10 813.20 552.80 816.80 C 536.70 818.90 520.70 819.80 504.60 820.10 C 478.70 820.40 458.20 820.70 442.70 820.70 C 433.80 820.70 424.50 821.00 415.00 821.30 C 405.80 821.90 396.30 821.30 387.00 819.80 C 376.30 817.40 365.90 815.30 356.10 813.60 C 344.80 811.80 330.50 805.90 313.50 795.70 C 298.30 786.50 285.20 774.00 275.40 759.40 C 277.20 760.30 279.00 761.80 280.20 763.60 C 280.80 764.50 281.70 764.80 282.60 765.10 C 291.20 766.00 296.90 771.60 305.50 771.30 C 310.60 771.00 315.60 771.60 320.40 772.50 C 326.10 773.70 331.70 774.30 337.70 774.60 C 348.10 774.90 358.20 775.80 368.60 776.70 C 380.50 777.90 390.90 778.50 399.20 778.50 C 432.20 778.50 464.40 777.90 496.20 776.40 C 508.10 775.80 519.70 774.30 531.30 772.20 C 549.50 769.20 565.50 766.80 580.10 764.80 C 584.30 764.20 588.40 762.70 592.00 760.30 C 593.50 759.40 595.30 758.80 597.40 758.80 C 604.80 758.50 612.00 757.30 619.10 755.50 C 620.90 754.90 623.00 754.60 624.80 754.60 C 626.60 754.30 628.40 754.00 630.20 753.70 C 635.30 751.80 641.00 750.00 646.60 748.00 Z" fill="#dbcaab" fill-rule="nonzero" node-id="170" stroke="none" target-height="73.900024" target-width="371.19998" target-x="275.4" target-y="748"></path><path d="M 718.30 767.30 C 712.30 780.40 704.30 792.30 694.80 803.00 C 693.90 803.90 693.60 804.80 693.30 806.00 C 693.00 806.90 692.40 807.80 691.80 808.40 C 688.20 811.70 684.70 814.90 681.10 818.50 C 677.50 822.10 673.10 824.70 668.00 826.20 C 662.90 828.00 657.60 829.80 652.20 831.60 C 651.90 831.60 651.60 831.90 651.60 832.20 C 651.60 832.50 651.60 832.80 651.60 833.10 C 651.60 833.40 651.90 833.40 652.20 833.40 L 673.30 832.50 C 672.70 832.80 671.80 833.10 671.20 833.70 L 648.90 834.90 C 647.40 829.20 643.80 824.50 638.80 821.50 C 634.30 818.80 628.70 818.20 623.60 819.40 C 613.80 821.50 609.30 826.50 610.20 834.60 L 584.30 834.30 L 570.60 830.40 C 565.50 826.20 559.90 823.00 553.90 820.90 L 552.40 817.30 C 567.00 814.00 580.70 808.10 593.20 800.00 C 594.70 799.70 595.90 799.70 597.40 799.70 C 598.90 800.00 598.90 800.30 597.70 801.20 C 595.60 803.00 594.40 806.00 595.30 808.60 C 595.60 809.80 596.20 810.70 597.10 811.00 C 601.00 813.10 605.40 814.60 609.60 815.20 C 610.50 815.50 611.70 815.20 612.60 814.60 C 618.30 811.30 624.20 812.20 629.60 809.20 C 633.80 807.10 637.60 804.70 641.50 802.40 C 644.50 800.00 647.50 797.30 650.10 794.40 C 652.50 792.00 655.80 790.20 659.00 789.00 C 662.30 788.10 665.20 786.60 668.20 784.50 C 675.30 779.70 682.80 775.60 690.80 772.30 C 699.90 769.70 709.10 767.90 718.30 767.30 Z" fill="#df615d" fill-rule="nonzero" node-id="172" stroke="none" target-height="67.60004" target-width="165.89996" target-x="552.4" target-y="767.3"></path><path d="M 228.00 785.10 C 230.10 784.80 232.20 786.00 233.10 788.10 C 234.00 790.50 235.50 792.30 237.30 794.10 C 239.10 795.90 240.60 798.00 241.80 800.10 C 246.60 809.00 252.80 817.10 260.50 823.60 C 264.40 827.20 270.00 829.00 275.40 828.40 C 276.30 828.40 277.20 828.70 277.80 829.00 L 279.00 830.20 C 279.60 830.80 280.20 830.80 279.90 829.60 C 279.60 826.90 281.10 824.20 283.80 823.40 C 289.20 820.70 295.40 819.20 301.40 819.50 C 310.30 820.40 318.40 825.50 323.40 832.90 L 263.30 832.90 L 257.90 829.00 C 246.10 816.10 236.00 801.20 228.00 785.10 Z" fill="#e37a7b" fill-rule="nonzero" node-id="174" stroke="none" target-height="48.100037" target-width="95.399994" target-x="228" target-y="784.8"></path><path d="M 766.00 833.90 L 784.40 832.70 C 785.30 832.70 785.30 832.40 785.00 831.50 L 784.10 829.70 C 783.80 829.10 783.20 828.80 782.60 828.80 C 777.20 829.70 771.60 830.00 766.20 829.70 C 760.80 829.40 757.90 827.60 757.00 824.00 C 755.80 818.30 754.00 812.70 751.00 807.60 C 762.00 799.60 770.30 795.10 775.40 793.90 C 784.90 791.80 791.20 795.10 794.40 804.30 C 797.10 811.40 798.60 818.90 798.90 826.30 C 798.90 828.70 801.00 830.50 803.40 830.50 C 821.80 830.50 840.60 830.50 859.00 830.50 C 864.40 830.50 864.40 831.10 859.30 832.30 C 857.50 832.90 855.70 833.20 853.60 833.20 C 842.00 833.20 830.40 833.50 818.50 833.80 C 801.10 835.10 783.50 834.80 766.00 833.90 Z" fill="#baa4ab" fill-rule="nonzero" node-id="176" stroke="none" target-height="43.299988" target-width="113.400024" target-x="751" target-y="791.8"></path><path d="M 312.80 795.60 C 330.10 805.70 344.00 811.70 355.40 813.50 C 365.20 815.00 375.60 817.10 386.30 819.70 C 395.50 821.50 405.00 821.80 414.30 821.20 C 423.80 820.90 433.00 820.60 442.00 820.60 C 457.50 820.60 478.00 820.30 503.90 820.00 C 520.00 819.70 536.30 818.80 552.10 816.70 L 553.60 820.30 C 547.60 820.90 541.40 821.50 535.20 822.40 C 529.00 823.00 523.00 823.60 516.80 823.60 C 504.30 823.60 489.10 823.90 471.60 824.20 C 444.50 825.10 414.50 824.20 380.80 821.80 C 376.90 821.20 373.10 821.80 369.50 823.60 C 365.90 825.40 363.00 828.40 360.90 832.20 C 359.40 833.40 358.50 833.70 358.20 832.80 C 347.80 834.30 337.10 834.60 326.40 833.40 L 324.90 832.20 C 324.00 831.60 324.00 830.70 324.90 830.40 L 344.20 820.60 C 345.40 820.00 346.00 818.50 345.10 817.30 C 344.80 816.70 344.50 816.40 343.90 816.10 C 332.60 811.90 321.90 806.30 311.80 799.70 C 310.00 798.80 309.40 796.70 310.00 794.60 C 310.40 794.70 311.30 795.00 312.80 795.60 Z" fill="#6d8489" fill-rule="nonzero" node-id="178" stroke="none" target-height="40" target-width="244.19998" target-x="309.4" target-y="794.6"></path><path d="M 257.70 829.80 L 263.10 833.70 L 163.40 834.00 C 161.00 834.00 160.40 833.10 161.60 831.00 C 169.90 816.10 176.80 797.70 198.20 801.20 C 202.10 801.80 205.60 803.90 208.30 807.20 C 216.00 816.40 219.60 824.20 224.40 832.50 C 224.70 833.40 225.90 833.70 226.80 833.70 C 232.80 833.10 238.70 832.50 244.40 831.90 C 246.80 831.60 248.90 831.60 251.20 831.90 C 254.70 831.60 257.10 831.00 257.70 829.80 Z" fill="#a79ba2" fill-rule="nonzero" node-id="180" stroke="none" target-height="36.299988" target-width="102.70001" target-x="160.4" target-y="797.7"></path><path d="M 751.10 807.80 C 754.10 812.90 755.90 818.50 757.10 824.20 C 758.00 827.80 761.00 829.60 766.30 829.90 C 772.00 830.20 777.30 829.90 782.70 829.00 C 783.30 829.00 783.90 829.30 784.20 829.90 L 785.10 831.70 C 785.40 832.30 785.10 832.60 784.50 832.90 L 766.10 834.10 L 735.70 834.40 C 735.10 834.10 734.20 833.80 733.60 833.50 C 733.00 833.20 732.70 832.60 732.70 831.70 C 732.70 831.10 732.70 830.20 732.70 829.60 C 737.40 821.50 743.60 814.00 751.10 807.80 Z" fill="#958a9c" fill-rule="nonzero" node-id="182" stroke="none" target-height="26.600037" target-width="52.700012" target-x="732.7" target-y="807.8"></path><path d="M 648.70 834.50 L 610.00 834.20 C 609.10 826.20 613.60 821.10 623.40 819.00 C 628.50 817.80 634.10 818.40 638.60 821.10 C 644.00 824.10 647.50 828.90 648.70 834.50 Z" fill="#baa4ab" fill-rule="nonzero" node-id="184" stroke="none" target-height="16.700012" target-width="39.600037" target-x="609.1" target-y="817.8"></path><path d="M 554.10 820.30 C 560.10 822.70 566.00 825.70 570.80 829.80 C 510.10 830.70 450.00 831.00 390.50 830.40 C 380.70 830.40 370.60 831.00 360.70 831.90 C 362.80 828.30 365.80 825.40 369.30 823.30 C 372.90 821.80 376.70 821.20 380.60 821.50 C 414.20 823.90 444.60 824.50 471.40 823.90 C 489.30 823.30 504.10 823.00 516.60 823.30 C 522.80 823.30 529.10 823.00 535.00 822.10 C 541.90 821.50 547.80 820.90 554.10 820.30 Z" fill="#f6f7f9" fill-rule="nonzero" node-id="186" stroke="none" target-height="11.600037" target-width="210.09998" target-x="360.7" target-y="820.3"></path><path d="M 570.80 829.80 L 584.50 833.70 C 529.50 835.80 487.50 834.90 438.70 835.20 C 417.90 835.50 389.90 834.30 365.20 835.20 C 362.80 834.90 360.40 834.00 358.40 832.50 C 358.70 833.10 359.60 832.80 361.10 831.90 C 370.90 831.00 381.00 830.40 390.90 830.40 C 449.90 831.00 510.10 831.00 570.80 829.80 Z" fill="#f0d1cd" fill-rule="nonzero" node-id="188" stroke="none" target-height="6" target-width="226.1" target-x="358.4" target-y="829.8"></path><path d="M 680.90 829.80 L 728.20 831.30 C 729.10 831.30 730.00 831.00 730.90 830.40 C 731.50 830.10 732.10 829.80 733.00 829.50 C 733.00 830.10 733.00 831.00 733.00 831.60 C 733.00 832.20 733.30 832.80 733.90 833.40 C 734.50 833.70 735.40 834.00 736.00 834.30 C 727.70 834.60 719.30 834.60 711.30 834.60 L 694.00 835.50 C 686.60 836.10 678.80 835.20 671.70 833.10 C 672.30 832.50 672.90 832.20 673.80 831.90 C 675.50 831.00 678.20 830.10 680.90 829.80 Z" fill="#f0d1cd" fill-rule="nonzero" node-id="190" stroke="none" target-height="6.5999756" target-width="64.29999" target-x="671.7" target-y="829.5"></path></svg>